# xmcd CD database file
#
# Track frame offsets:
#	150
#	20987
#	32800
#	48395
#	63096
#	75129
#	90193
#	101582
#	114830
#	127811
#	134679
#	146905
#	161185
#	172513
#	188461
#	201617
#	221746
#	236175
#	250337
#	265003
#	278882
#	300931
#
# Disc length: 4205 seconds
#
# Revision: 3
# Processed by: cddbd v1.5.2PL0 Copyright (c) Steve Scherf et al.
# Submitted via: CDex 1.51
#
DISCID=2c106b16
DTITLE=Frank Sinatra - MY WAY THE BEST OF
DYEAR=1997
DGENRE=Jazz
TTITLE0=Frank Sinatra - My Way 
TTITLE1=Frank Sinatra - Strangers In The Night
TTITLE2=Frank Sinatra - Theme From New York New York
TTITLE3=Frank Sinatra - I Get A Kick Out Of You
TTITLE4=Frank Sinatra - Something Stupid
TTITLE5=Frank Sinatra - Moon River
TTITLE6=Frank Sinatra - What Now My Love
TTITLE7=Frank Sinatra - Summer Wind
TTITLE8=Frank Sinatra - For Once In My Life
TTITLE9=Frank Sinatra - Love And Marriage
TTITLE10=Frank Sinatra - They Can't Take That Away From Me
TTITLE11=Frank Sinatra - My Kind Of Town
TTITLE12=Frank Sinatra - Fly Me To The Moon
TTITLE13=Frank Sinatra - I've Got You Under My Skin
TTITLE14=Frank Sinatra - The Best Is Yet To Come
TTITLE15=Frank Sinatra - It Was A Very Good Year
TTITLE16=Frank Sinatra - Come Fly With Me
TTITLE17=Frank Sinatra - That's Life
TTITLE18=Frank Sinatra - The Girl From Ipanema
TTITLE19=Frank Sinatra - The Lady Is A Tramp
TTITLE20=Frank Sinatra - Mack The Knife
TTITLE21=Frank Sinatra - L.A. Is My Lady
EXTD=YEAR: 1997
EXTT0=
EXTT1=
EXTT2=
EXTT3=
EXTT4=
EXTT5=
EXTT6=
EXTT7=
EXTT8=
EXTT9=
EXTT10=
EXTT11=
EXTT12=
EXTT13=
EXTT14=
EXTT15=
EXTT16=
EXTT17=
EXTT18=
EXTT19=
EXTT20=
EXTT21=
PLAYORDER=
